<svg xmlns="http://www.w3.org/2000/svg" viewBox="0 0 108.49 19.85"><defs><style>.cls-1,.cls-2{fill:#406bb2;}.cls-2{font-size:17.73px;font-family:HPSimplified-Regular, HP Simplified;}.cls-3{letter-spacing:-0.08em;}.cls-4{letter-spacing:-0.03em;}.cls-5{letter-spacing:0em;}.cls-6{letter-spacing:-0.01em;}.cls-7{letter-spacing:0em;}</style></defs><g id="Layer_2" data-name="Layer 2"><g id="Layer_1-2" data-name="Layer 1"><path class="cls-1" d="M6.46,6.88l-.26.33a.13.13,0,0,1-.2,0L1.73,3.06a.73.73,0,0,1-.06-1h0A.57.57,0,0,1,2.53,2L6.4,5.81A.82.82,0,0,1,6.46,6.88Z"/><path class="cls-1" d="M9.17,8.5l-.82,1a2.06,2.06,0,0,1-3.12.23l-.72-.7A1.58,1.58,0,0,1,4.39,7l2-2.55a1.22,1.22,0,0,1,1.85-.13L9,5A2.66,2.66,0,0,1,9.17,8.5Z"/><path class="cls-1" d="M17.93,18h0a.63.63,0,0,1-1,.08l-9.23-9A.85.85,0,0,1,7.67,8h0a.65.65,0,0,1,1-.08l9.21,9A.86.86,0,0,1,17.93,18Z"/><path class="cls-1" d="M5.3,8.23,4.68,9a.13.13,0,0,1-.2,0L.21,4.86a.73.73,0,0,1-.06-1h0A.57.57,0,0,1,1,3.84L5.28,8A.18.18,0,0,1,5.3,8.23Z"/><path class="cls-1" d="M8.26,4.56,8,4.89A.64.64,0,0,1,7,5L3.17,1.19a.73.73,0,0,1,0-1h0A.57.57,0,0,1,4,.17L8.25,4.33A.18.18,0,0,1,8.26,4.56Z"/><path class="cls-1" d="M6.64,17.83h0a.58.58,0,0,0,1,.22L18.36,7.68a1.1,1.1,0,0,0,.18-1.18h0a.58.58,0,0,0-1-.22L6.82,16.65A1.06,1.06,0,0,0,6.64,17.83Z"/><path class="cls-1" d="M17.38,7.61a2.61,2.61,0,0,0,2.37.78,5.33,5.33,0,0,0,3.66-2.27,6,6,0,0,0,1.19-2.5c.14-.68.42-2.06-.22-2.81s-2.33-.37-3-.15a6.33,6.33,0,0,0-4.26,4.72A3.07,3.07,0,0,0,17.38,7.61Z"/><text class="cls-2" transform="translate(32.81 16.32) scale(0.92 1)"><tspan class="cls-3">T</tspan><tspan x="7.92" y="0">a</tspan><tspan class="cls-4" x="16.75" y="0">k</tspan><tspan class="cls-5" x="24.85" y="0">e a S</tspan><tspan class="cls-6" x="58.77" y="0">e</tspan><tspan class="cls-7" x="67.37" y="0">a</tspan><tspan x="76.14" y="0">t</tspan></text></g></g></svg>